<svg width="32" height="32" viewBox="0 0 32 32" fill="none" xmlns="http://www.w3.org/2000/svg">
<path d="M16 0.375C7.38438 0.375 0.375 7.38438 0.375 16C0.375 24.6156 7.38438 31.625 16 31.625C24.6156 31.625 31.625 24.6156 31.625 16C31.625 7.38438 24.6156 0.375 16 0.375ZM16 6.78125C16.4017 6.78125 16.7945 6.90038 17.1285 7.12358C17.4625 7.34677 17.7229 7.66401 17.8766 8.03517C18.0304 8.40634 18.0706 8.81475 17.9922 9.20878C17.9138 9.6028 17.7204 9.96474 17.4363 10.2488C17.1522 10.5329 16.7903 10.7263 16.3963 10.8047C16.0023 10.8831 15.5938 10.8429 15.2227 10.6891C14.8515 10.5354 14.5343 10.275 14.3111 9.941C14.0879 9.60696 13.9688 9.21424 13.9688 8.8125C13.9688 8.27378 14.1828 7.75712 14.5637 7.37619C14.9446 6.99526 15.4613 6.78125 16 6.78125ZM19.75 24.4375H12.875C12.5435 24.4375 12.2255 24.3058 11.9911 24.0714C11.7567 23.837 11.625 23.519 11.625 23.1875C11.625 22.856 11.7567 22.538 11.9911 22.3036C12.2255 22.0692 12.5435 21.9375 12.875 21.9375H15.0625V15.0625H13.8125C13.481 15.0625 13.163 14.9308 12.9286 14.6964C12.6942 14.462 12.5625 14.144 12.5625 13.8125C12.5625 13.481 12.6942 13.163 12.9286 12.9286C13.163 12.6942 13.481 12.5625 13.8125 12.5625H16.3125C16.644 12.5625 16.962 12.6942 17.1964 12.9286C17.4308 13.163 17.5625 13.481 17.5625 13.8125V21.9375H19.75C20.0815 21.9375 20.3995 22.0692 20.6339 22.3036C20.8683 22.538 21 22.856 21 23.1875C21 23.519 20.8683 23.837 20.6339 24.0714C20.3995 24.3058 20.0815 24.4375 19.75 24.4375Z" fill="white"/>
</svg>
